<svg id="Layer_1" height="512" viewBox="0 0 512 512" width="512" xmlns="http://www.w3.org/2000/svg" data-name="Layer 1"><path d="m349.82 53.02a143.833 143.833 0 0 0 -245.55 101.7v226.46l287.43 1.38.25-.27v-227.57a143.366 143.366 0 0 0 -42.13-101.7z" fill="#75967a"/><path d="m76.27 381.18h319.63v49.07h-319.63z" fill="#767178"/><path d="m56.42 430.25v70.87l339.58-1.1v-69.77z" fill="#5c585e"/><path d="m291.37 129.78v24.42h-31.05v67.41h-24.42v-67.41h-31.05v-24.42h31.05v-35.73h24.42v35.73z" fill="#f3e08d"/><path d="m453.87 430c17.4-18.43 41.71-20.25 41.71-20.25-6.34 5.9-16.19 14.24-21.76 22.67-18.59 28.11-12.26 63.44-10.84 68.23v.47h-24.52v-.47a116.206 116.206 0 0 1 -1.81-18.81c-.67-24.82 7.11-41.14 17.22-51.84z" fill="#49c160"/><path d="m436.84 405.52c19.01-26.7 45.2-36.26 45.84-36.48-18.78 26.46-24.16 41.47-28.81 60.96-10.11 10.7-17.89 27.02-17.22 51.84a116.206 116.206 0 0 0 1.81 18.81v.47h-6.8v-.75a14.692 14.692 0 0 0 -13.54-14.65l-.57-9.38c-.82-18.1 1.83-33.41 6.47-46.29a101.2 101.2 0 0 1 12.82-24.53z" fill="#d8ff33"/><path d="m428.99 332.75c5.86 20.31 8.63 67.33 7.85 72.77a101.2 101.2 0 0 0 -12.82 24.53 102.963 102.963 0 0 0 -12.06-24.69c-4.16-28.83 8.19-59.13 17.03-72.61z" fill="#81c83d"/><path d="m418.12 485.72a14.692 14.692 0 0 1 13.54 14.65v.75h-79.14v-1.1c-3.84-8.24 4.4-20.33 16.05-12.9.12.08.29 0 .44.02a23.4 23.4 0 0 1 17.22-18.19 23.727 23.727 0 0 1 5.76-.71 23.482 23.482 0 0 1 22.69 17.6 15.692 15.692 0 0 1 2.28-.17c.39 0 .78.02 1.16.05z" fill="#c79a83"/><path d="m411.96 405.36a102.963 102.963 0 0 1 12.06 24.69c-4.64 12.88-7.29 28.19-6.47 46.29l.57 9.38c-.38-.03-.77-.05-1.16-.05a15.692 15.692 0 0 0 -2.28.17 23.2 23.2 0 0 0 -2.25-5.6l.34-10.15c-.81-23.09-9.43-37.8-20.11-47.19-3.57-14.96-7.59-25.6-17.76-41.72-3.08-4.87-6.73-10.25-11.09-16.39 0 0 13.27 5.2 27.89 17.77a111.328 111.328 0 0 1 20.26 22.8z" fill="#c6e02d"/><path d="m392.66 422.9c10.68 9.39 19.3 24.1 20.11 47.19l-.34 10.15a23.4 23.4 0 0 0 -20.44-12 23.727 23.727 0 0 0 -5.76.71c-2.43-13.9-9.44-29.52-15.24-38.7-.26-.42-.52-.81-.77-1.2-5.57-8.43-15.41-16.77-21.75-22.67.43 0 25.48.07 44.19 16.52z" fill="#81c83d"/><path d="m248.11 10.88a143.847 143.847 0 0 0 -143.84 143.84v226.46h30v-226.46a143.867 143.867 0 0 1 128.839-143.064 145.462 145.462 0 0 0 -14.999-.776z" fill="#97ba9b"/><path d="m76.27 381.18h30v49.07h-30z" fill="#979299"/><path d="m56.42 430.25v70.87l30-.097v-70.773z" fill="#817c84"/><g fill="#474349"><path d="m230.683 479.234a6 6 0 0 1 -6-6v-16.265a6 6 0 0 1 12 0v16.265a6 6 0 0 1 -6 6z"/><path d="m195.829 479.234a6 6 0 0 1 -6-6v-16.265a6 6 0 0 1 12 0v16.265a6 6 0 0 1 -6 6z"/><path d="m160.977 479.234a6 6 0 0 1 -6-6v-16.265a6 6 0 0 1 12 0v16.265a6 6 0 0 1 -6 6z"/><path d="m126.123 479.234a6 6 0 0 1 -6-6v-16.265a6 6 0 1 1 12 0v16.265a6 6 0 0 1 -6 6z"/><path d="m91.27 479.234a6 6 0 0 1 -6-6v-16.265a6 6 0 0 1 12 0v16.265a6 6 0 0 1 -6 6z"/><path d="m300.389 479.234a6 6 0 0 1 -6-6v-16.265a6 6 0 1 1 12 0v16.265a6 6 0 0 1 -6 6z"/><path d="m265.536 479.234a6 6 0 0 1 -6-6v-16.265a6 6 0 0 1 12 0v16.265a6 6 0 0 1 -6 6z"/><path d="m335.242 479.234a6 6 0 0 1 -6-6v-16.265a6 6 0 0 1 12 0v16.265a6 6 0 0 1 -6 6z"/></g><path d="m232.711 280.946h-54.146a6 6 0 0 1 0-12h54.146a6 6 0 0 1 0 12z" fill="#557759"/><path d="m317.653 308.829h-139.088a6 6 0 0 1 0-12h139.088a6 6 0 0 1 0 12z" fill="#557759"/><path d="m317.653 336.711h-139.088a6 6 0 0 1 0-12h139.088a6 6 0 0 1 0 12z" fill="#557759"/><path d="m479.8 507.116h-463.383a6 6 0 0 1 0-12h463.383a6 6 0 0 1 0 12z" fill="#767178"/><path d="m137.457 164.705a6 6 0 0 1 -6-6v-7.151a6 6 0 1 1 12 0v7.151a6 6 0 0 1 -6 6z" fill="#f4f8fc"/><path d="m137.457 352.551a6 6 0 0 1 -6-6v-167.885a6 6 0 0 1 12 0v167.885a6 6 0 0 1 -6 6z" fill="#f4f8fc"/></svg>