<svg height="512pt" viewBox="-18 0 512 512.00003" width="512pt" xmlns="http://www.w3.org/2000/svg"><path d="m80.464844 512h317.964844c31.117187 0 45.851562-38.242188 22.875-59.226562-36.488282-33.316407-95.382813-68.296876-181.855469-68.296876-86.476563 0-145.371094 34.980469-181.859375 68.296876-22.976563 20.984374-8.242188 59.226562 22.875 59.226562zm0 0" fill="#66666d"/><path d="m239.449219 384.476562c-86.472657 0-145.371094 34.980469-181.859375 68.296876-22.976563 20.984374-8.238282 59.226562 22.875 59.226562h209.867187c44.855469-38.300781 58.839844-76.296875 58.839844-76.296875v-29.550781c-30.101563-12.921875-66.460937-21.675782-109.722656-21.675782zm0 0" fill="#5a5a60"/><path d="m408.585938 225.960938v-43.875c0-93.027344-48.472657-182.085938-169.136719-182.085938-120.667969 0-169.140625 89.058594-169.140625 182.085938v43.878906c0 10.691406-4.324219 20.875-11.820313 28.496094-10.988281 11.167968-17.769531 26.488281-17.769531 43.390624 0 34.179688 32.996094 137.851563 132.226562 137.851563 11.011719 0 20.820313-5.398437 26.917969-13.683594 3.152344-4.285156 9.511719-4.285156 12.664063 0 6.097656 8.285157 15.90625 13.683594 26.921875 13.683594 11.011719 0 20.820312-5.398437 26.917969-13.683594 3.152343-4.285156 9.511718-4.285156 12.664062 0 6.097656 8.285157 15.90625 13.683594 26.917969 13.683594 64.132812 0 132.226562-103.671875 132.226562-137.851563 0-16.902343-6.78125-32.222656-17.769531-43.390624-7.496094-7.621094-11.820312-17.804688-11.820312-28.5zm0 0" fill="#d8d7da"/><path d="m199.972656 114.984375 2.789063-111.960937c-93.90625 16.3125-132.453125 96.109374-132.453125 179.0625v43.878906c0 10.691406-4.324219 20.875-11.820313 28.496094-10.988281 11.167968-17.769531 26.488281-17.769531 43.390624 0 33.363282 31.460938 132.945313 125.253906 137.679688-70.824218-130.085938 34-320.546875 34-320.546875zm0 0" fill="#c6c5ca"/><g fill="#898890"><path d="m153.191406 230.5c31.402344-4.191406 59.398438 11.457031 62.535156 34.953125 3.136719 23.492187-19.777343 45.9375-51.179687 50.128906-31.402344 4.191407-47.949219-12.988281-51.082031-36.480469-3.136719-23.496093 8.324218-44.410156 39.726562-48.601562zm0 0"/><path d="m325.707031 230.5c-31.402343-4.191406-59.402343 11.457031-62.535156 34.953125-3.136719 23.492187 19.777344 45.9375 51.179687 50.128906 31.402344 4.191407 47.945313-12.988281 51.082032-36.480469 3.132812-23.496093-8.328125-44.410156-39.726563-48.601562zm0 0"/><path d="m264.4375 343.75c0 13.800781-11.191406 15.222656-24.988281 15.222656-13.800781 0-24.988281-1.421875-24.988281-15.222656s11.1875-38.367188 24.988281-38.367188c13.796875 0 24.988281 24.566407 24.988281 38.367188zm0 0"/><path d="m239.449219 0c-133.546875 0-237.378907 104.023438-237.378907 300.617188 0 196.597656 237.378907 159.691406 237.378907 159.691406s-153.921875-29.75-153.921875-162.753906c0-228.148438 153.921875-231.964844 153.921875-231.964844s153.917969 3.816406 153.917969 231.964844c0 133.003906-153.917969 162.753906-153.917969 162.753906s237.375 36.90625 237.375-159.691406c0-196.59375-103.828125-300.617188-237.375-300.617188zm0 0"/></g><path d="m20.710938 50.601562 25.992187 142.714844s126.757813-81.855468 268.460937-116.734375c19.222657-4.730469 18.0625-32.472656-1.46875-35.683593-74.199218-12.1875-183.464843-19.933594-292.984374 9.703124zm0 0" fill="#eaeaea"/><path d="m122.40625 512-81.300781-464.976562c-1.980469-11.265626-12.710938-18.792969-23.976563-16.816407-11.261718 1.980469-18.792968 12.710938-16.8125 23.976563l80.148438 457.816406zm0 0" fill="#dd9f80"/><path d="m113.464844 279.09375c2.261718 16.960938 11.515625 30.625 28.296875 35.339844 1.410156-29.242188 6.734375-58.003906 13.632812-84.191406-.730469.078124-1.464843.15625-2.203125.253906-31.402344 4.191406-42.863281 25.105468-39.726562 48.597656zm0 0" fill="#66666d"/></svg>