<svg id="Capa_1" enable-background="new 0 0 512 512" height="512" viewBox="0 0 512 512" width="512" xmlns="http://www.w3.org/2000/svg"><g><g><g><g><g><g><g><circle cx="256" cy="256" fill="#ff6c52" r="256"/></g></g></g></g></g></g><path d="m512 256c0-7.812-.35-15.542-1.035-23.176l-101.297-101.296-289.765 233.75 76.622 76.622-13.313 16.068 53.302 53.302c6.432.483 12.93.73 19.486.73 141.385 0 256-114.615 256-256z" fill="#ea190f"/><g><path d="m437.375 209.393c0-94.967-81.204-124.843-181.375-124.843s-181.375 29.876-181.375 124.843c0 32.165 9.316 64.068 25.529 92.198v17.604c0 35.146 28.491 63.637 63.637 63.637h19.422v56.617h145.576v-56.617h19.422c35.146 0 63.637-28.491 63.637-63.637v-17.604c16.211-28.129 25.527-60.032 25.527-92.198z" fill="#ffde91"/></g><g><path d="m256.12 84.551v354.898h72.667v-56.616h19.422c35.146 0 63.637-28.491 63.637-63.637v-17.604c16.213-28.13 25.529-60.033 25.529-92.198 0-94.93-81.139-124.819-181.255-124.843z" fill="#edc472"/></g><g><g><path d="m222.863 259.787c13.797 21.54 4.643 52.03-20.447 68.101s-56.613 11.638-70.41-9.902 2.567-40.774 27.657-56.845c25.089-16.071 49.403-22.894 63.2-1.354z" fill="#636978"/></g><g><path d="m289.137 259.787c-13.797 21.54-4.643 52.03 20.447 68.101s56.613 11.638 70.41-9.902-2.567-40.774-27.657-56.845c-25.089-16.071-49.403-22.894-63.2-1.354z" fill="#414952"/></g></g><g><path d="m274.461 363.705c0 18.953-8.265 19.113-18.461 19.113s-18.462-.16-18.462-19.113 8.266-49.52 18.462-49.52 18.461 30.568 18.461 49.52z" fill="#636978"/></g><g><path d="m274.461 363.705c0-18.877-8.201-49.269-18.341-49.509v68.622c10.141-.001 18.341-.235 18.341-19.113z" fill="#414952"/></g><g><path d="m215.285 457.968h-32.073v-28.618c0-7.946 6.441-14.387 14.387-14.387h3.299c7.946 0 14.387 6.441 14.387 14.387z" fill="#fad17f"/></g><g><path d="m243.657 457.968h-32.073v-28.618c0-7.946 6.441-14.387 14.387-14.387h3.299c7.946 0 14.387 6.441 14.387 14.387z" fill="#edc472"/></g><g><path d="m272.03 457.968h-32.073v-28.618c0-7.946 6.441-14.387 14.387-14.387h3.299c7.946 0 14.387 6.441 14.387 14.387z" fill="#fad17f"/></g><g><path d="m272.03 429.35c0-7.946-6.441-14.387-14.387-14.387h-1.523v43.004h15.91z" fill="#e8ba64"/></g><g><path d="m300.403 457.968h-32.073v-28.618c0-7.946 6.441-14.387 14.387-14.387h3.299c7.946 0 14.387 6.441 14.387 14.387z" fill="#dbad5c"/></g><g><path d="m328.776 457.968h-32.073v-28.618c0-7.946 6.441-14.387 14.387-14.387h3.299c7.946 0 14.387 6.441 14.387 14.387z" fill="#e8ba64"/></g></g></svg>