<?xml version="1.0" encoding="iso-8859-1"?>
<!-- Generator: Adobe Illustrator 19.0.0, SVG Export Plug-In . SVG Version: 6.00 Build 0)  -->
<svg version="1.1" id="Layer_1" xmlns="http://www.w3.org/2000/svg" xmlns:xlink="http://www.w3.org/1999/xlink" x="0px" y="0px"
	 viewBox="0 0 512 512" style="enable-background:new 0 0 512 512;" xml:space="preserve">
<path style="fill:#B71C1C;" d="M439.463,76.8v194.048c0.162,2.927-1.195,5.726-3.584,7.424
	c-20.736,13.551-45.03,20.651-69.803,20.395c-7.117,0-14.225-0.572-21.248-1.707c-24.661-3.499-47.522-14.874-65.195-32.427
	c-23.108-22.511-54.281-34.807-86.528-34.133c-7.117,0-14.225,0.572-21.248,1.707l0,0c-19.618,2.884-38.195,10.667-54.016,22.613
	c-4.779,3.584-11.093,0-11.093-7.168V55.125c-0.043-2.441,0.879-4.804,2.56-6.571c17.365-16.077,39.211-26.496,62.635-29.867
	c6.997-1.101,14.08-1.638,21.163-1.621c32.247-0.674,63.42,11.622,86.528,34.133c17.638,17.502,40.431,28.877,65.024,32.427
	l52.139-1.963c11.281-2.611,22.144-6.81,32.256-12.459C433.917,66.475,439.463,70.485,439.463,76.8z"/>
<path style="fill:#D50000;" d="M396.797,81.664v189.184c0.162,2.927-1.195,5.726-3.584,7.424
	c-14.592,9.626-31.104,15.966-48.384,18.603c-24.644-3.473-47.514-14.822-65.195-32.341c-23.108-22.511-54.281-34.807-86.528-34.133
	c-7.117,0-14.225,0.572-21.248,1.707l0,0c-7.057-1.135-14.191-1.707-21.333-1.707c-14.899-0.034-29.705,2.449-43.776,7.339V55.125
	c-0.043-2.441,0.879-4.804,2.56-6.571c17.365-16.077,39.211-26.496,62.635-29.867c24.602,3.575,47.403,14.976,65.024,32.512
	c23.083,22.494,54.221,34.79,86.443,34.133c7.117,0,14.225-0.563,21.248-1.707L396.797,81.664z"/>
<path style="fill:#555656;" d="M89.597,8.448L89.597,8.448c9.429,0,17.067,7.637,17.067,17.067v460.8
	c0,9.429-7.637,17.067-17.067,17.067l0,0c-9.429,0-17.067-7.637-17.067-17.067v-460.8C72.53,16.085,80.167,8.448,89.597,8.448z"/>
<path d="M366.077,307.2c-34.534,0.7-67.908-12.527-92.587-36.693c-21.47-20.89-50.441-32.273-80.384-31.573
	c-25.207-0.333-49.843,7.578-70.144,22.528c-4.446,3.533-10.539,4.164-15.616,1.621c-5.811-3.004-9.395-9.071-9.216-15.616V55.125
	c0.026-4.676,1.894-9.156,5.205-12.459c24.474-22.409,56.593-34.62,89.771-34.133c34.577-0.759,68.011,12.433,92.757,36.608
	c21.41,20.89,50.313,32.299,80.213,31.659c20.557,0.196,40.823-4.949,58.795-14.933c4.608-2.705,10.325-2.705,14.933,0
	c5.197,3.166,8.311,8.849,8.192,14.933v194.048c0.162,5.769-2.603,11.221-7.339,14.507
	C418.514,299.878,392.547,307.482,366.077,307.2z M193.106,221.867c34.586-0.759,68.019,12.433,92.757,36.608
	c21.41,20.89,50.313,32.299,80.213,31.659c23.006,0.137,45.542-6.443,64.853-18.944V77.909
	c-19.959,10.607-42.249,16.085-64.853,15.957c-34.534,0.7-67.908-12.527-92.587-36.693C252.02,36.284,223.049,24.9,193.106,25.6
	c-28.723-0.563-56.585,9.847-77.909,29.099v191.147C138.032,229.931,165.27,221.542,193.106,221.867z"/>
<path d="M89.597,512c-14.14,0-25.6-11.46-25.6-25.6V25.6c0-14.14,11.46-25.6,25.6-25.6s25.6,11.46,25.6,25.6v460.8
	C115.197,500.54,103.728,512,89.597,512z M89.597,17.067c-4.71,0-8.533,3.823-8.533,8.533v460.8c0,4.71,3.823,8.533,8.533,8.533
	s8.533-3.823,8.533-8.533V25.6C98.13,20.89,94.307,17.067,89.597,17.067z"/>
<g>
</g>
<g>
</g>
<g>
</g>
<g>
</g>
<g>
</g>
<g>
</g>
<g>
</g>
<g>
</g>
<g>
</g>
<g>
</g>
<g>
</g>
<g>
</g>
<g>
</g>
<g>
</g>
<g>
</g>
</svg>
