<?xml version="1.0" encoding="UTF-8" standalone="no" ?>
<!DOCTYPE svg PUBLIC "-//W3C//DTD SVG 1.1//EN" "http://www.w3.org/Graphics/SVG/1.1/DTD/svg11.dtd">
<svg xmlns="http://www.w3.org/2000/svg" xmlns:xlink="http://www.w3.org/1999/xlink" version="1.1" width="512" height="512" viewBox="0 0 512 512" xml:space="preserve">
<desc>Created with Fabric.js 4.2.0</desc>
<defs>
</defs>
<rect x="0" y="0" width="100%" height="100%" fill="transparent"></rect>
<g transform="matrix(1 0 0 1 256 256)" id="c85da353-e217-4acb-b54a-70d999883cea"  >
<rect style="stroke: none; stroke-width: 1; stroke-dasharray: none; stroke-linecap: butt; stroke-dashoffset: 0; stroke-linejoin: miter; stroke-miterlimit: 4; fill: rgb(255,255,255); fill-opacity: 0; fill-rule: nonzero; opacity: 1;" vector-effect="non-scaling-stroke"  x="-256" y="-256" rx="0" ry="0" width="512" height="512" />
</g>
<g transform="matrix(Infinity NaN NaN Infinity 0 0)" id="b5bf4fab-65f2-4a9e-bf6a-5280ea011a35"  >
</g>
<g transform="matrix(0.9 0 0 0.9 256 256)"  >
<g style="" vector-effect="non-scaling-stroke"   >
		<g transform="matrix(8.53 0 0 8.53 0.01 187.73)" id="Path"  >
<path style="stroke: none; stroke-width: 1; stroke-dasharray: none; stroke-linecap: butt; stroke-dashoffset: 0; stroke-linejoin: miter; stroke-miterlimit: 4; fill: rgb(96,169,23); fill-rule: evenodd; opacity: 1;" vector-effect="non-scaling-stroke"  transform=" translate(-31, -52)" d="M 55.285 45 L 6.714999999999996 45 C 5.300664489999996 45.0001503 4.078538999999996 45.988101 3.7819999999999965 47.371 L 2.0679999999999965 55.371 C 1.8780796899999965 56.2566861 2.0985090899999963 57.180765300000004 2.6677732399999963 57.8853558 C 3.237037399999996 58.5899464 4.094180249999996 58.9996018 4.9999999999999964 59 L 57 59 C 57.905995 58.9999037 58.7634207 58.5903765 59.3329124 57.8857446 C 59.9024041 57.181112600000006 60.122957 56.2568574 59.933 55.371 L 58.219 47.371 C 57.922382400000004 45.9877343 56.6997105 44.999678800000005 55.285000000000004 45 z" stroke-linecap="round" />
</g>
		<g transform="matrix(8.53 0 0 8.53 214.55 187.73)" id="Path"  >
<path style="stroke: none; stroke-width: 1; stroke-dasharray: none; stroke-linecap: butt; stroke-dashoffset: 0; stroke-linejoin: miter; stroke-miterlimit: 4; fill: rgb(84,148,20); fill-rule: evenodd; opacity: 1;" vector-effect="non-scaling-stroke"  transform=" translate(-56.14, -52)" d="M 59.932 55.371 L 58.218 47.371 C 57.921461 45.988101 56.699335500000004 45.0001503 55.285000000000004 45 L 52.285000000000004 45 C 53.699335500000004 45.0001503 54.921461 45.988101 55.218 47.371 L 56.932 55.371 C 57.1219203 56.2566861 56.9014909 57.180765300000004 56.3322268 57.8853558 C 55.7629626 58.5899464 54.9058198 58.9996018 54 59 L 57 59 C 57.9058198 58.9996018 58.7629626 58.5899464 59.3322268 57.8853558 C 59.9014909 57.1807653 60.1219203 56.256686099999996 59.932 55.371 z" stroke-linecap="round" />
</g>
		<g transform="matrix(8.53 0 0 8.53 0 -59.74)" id="Path"  >
<path style="stroke: none; stroke-width: 1; stroke-dasharray: none; stroke-linecap: butt; stroke-dashoffset: 0; stroke-linejoin: miter; stroke-miterlimit: 4; fill: rgb(255,220,0); fill-rule: evenodd; opacity: 1;" vector-effect="non-scaling-stroke"  transform=" translate(-31, -23)" d="M 54.306 45 L 59.934999999999995 28.358 C 60.047642999999994 28.0182004 60.00806299999999 27.6463104 59.8264242 27.337831 C 59.644785399999996 27.0293515 59.3387837 26.814336 58.986999999999995 26.748 L 51.422 25.257 C 50.7704713 25.133724 50.3304213 24.5207343 50.422 23.864 L 52.035999999999994 12.725000000000001 C 52.089383999999995 12.329847700000002 51.95119689999999 11.932917200000002 51.66396039999999 11.656348300000001 C 51.37672379999999 11.379779500000001 50.974849999999996 11.2567064 50.581999999999994 11.325000000000001 L 40.907999999999994 12.914000000000001 C 40.42860889999999 12.994035400000001 39.945684299999996 12.792784400000002 39.66499999999999 12.396 L 32.035999999999994 1.5350000000000001 C 31.797594699999994 1.1995576600000002 31.411532099999995 1.0003049600000002 30.999999999999993 1.0003049600000002 C 30.58846789999999 1.0003049600000002 30.20240529999999 1.1995576600000002 29.96399999999999 1.5350000000000001 L 22.334999999999994 12.4 C 22.054315699999993 12.7967844 21.571391099999992 12.998035400000001 21.091999999999995 12.918000000000001 L 11.417999999999996 11.329 C 11.025149999999996 11.2607064 10.623276199999996 11.383779500000001 10.336039599999996 11.6603483 C 10.048803099999995 11.9369172 9.910615999999996 12.333847700000002 9.963999999999995 12.729000000000001 L 11.578999999999995 23.868000000000002 C 11.670048099999995 24.5246032 11.230234799999995 25.137263200000003 10.578999999999995 25.261000000000003 L 3.0129999999999955 26.748000000000005 C 2.6612162999999955 26.814336000000004 2.3552146099999955 27.029351500000004 2.1735757799999953 27.337831000000005 C 1.9919369499999953 27.646310400000004 1.9523569999999952 28.018200400000005 2.0649999999999955 28.358000000000004 L 7.6939999999999955 45" stroke-linecap="round" />
</g>
		<g transform="matrix(8.53 0 0 8.53 0 -33.3)" id="Path"  >
<path style="stroke: none; stroke-width: 1; stroke-dasharray: none; stroke-linecap: butt; stroke-dashoffset: 0; stroke-linejoin: miter; stroke-miterlimit: 4; fill: rgb(255,152,1); fill-rule: evenodd; opacity: 1;" vector-effect="non-scaling-stroke"  transform=" translate(-31, -26.1)" d="M 53.4 32.21 L 49.89 39.2 C 49.530468 37.900576 48.3482454 37.0006141 47 37 L 15 37 C 13.6517546 37.0006141 12.469532000000001 37.900576 12.11 39.2 L 8.6 32.21 C 8.459703769999999 31.9293647 8.45925138 31.5991533 8.59877814 31.3181346 C 8.73830489 31.0371159 9.00163339 30.8378726 9.31 30.78 L 18 29.21 C 18.2624392 29.163240300000002 18.4950572 29.0129263 18.6455188 28.7928761 C 18.795980500000002 28.5728259 18.851649000000002 28.3015209 18.8 28.04 L 17.27 20.419999999999998 C 17.2075098 20.1073593 17.297844 19.7836592 17.5131922 19.548554199999998 C 17.728540499999998 19.313449199999997 18.0430888 19.195121699999998 18.36 19.229999999999997 L 25.369999999999997 20.009999999999998 C 25.751807299999996 20.053879799999997 26.1249801 19.875067899999998 26.33 19.549999999999997 L 30.15 13.469999999999997 C 30.332339299999997 13.175783099999997 30.653862399999998 12.996782699999997 31 12.996782699999997 C 31.346137600000002 12.996782699999997 31.6676607 13.175783099999997 31.85 13.469999999999997 L 35.67 19.549999999999997 C 35.875019900000005 19.875067899999998 36.248192700000004 20.053879799999997 36.63 20.009999999999998 L 43.64 19.229999999999997 C 43.9569112 19.195121699999998 44.2714595 19.313449199999997 44.4868078 19.548554199999998 C 44.702156 19.7836592 44.7924902 20.1073593 44.730000000000004 20.419999999999998 L 43.2 28.04 C 43.148351000000005 28.3015209 43.2040195 28.572825899999998 43.3544812 28.7928761 C 43.5049428 29.0129263 43.737560800000004 29.163240300000002 44 29.21 L 52.69 30.78 C 52.9983666 30.8378726 53.2616951 31.0371159 53.401221899999996 31.3181346 C 53.54074859999999 31.5991533 53.54029619999999 31.9293647 53.4 32.21 z" stroke-linecap="round" />
</g>
		<g transform="matrix(8.53 0 0 8.53 0 93.86)" id="Path"  >
<path style="stroke: none; stroke-width: 1; stroke-dasharray: none; stroke-linecap: butt; stroke-dashoffset: 0; stroke-linejoin: miter; stroke-miterlimit: 4; fill: rgb(0,138,0); fill-rule: evenodd; opacity: 1;" vector-effect="non-scaling-stroke"  transform=" translate(-31, -41)" d="M 50 40 L 50 45 L 12 45 L 12 40 C 12.000795 39.7329055 12.0377987 39.4671518 12.11 39.21 L 12.11 39.2 C 12.469532 37.900576 13.6517546 37.0006141 15 37 L 47 37 C 48.655485 37.0033011 49.9966989 38.344515 50 40 z" stroke-linecap="round" />
</g>
		<g transform="matrix(8.53 0 0 8.53 136.54 93.86)" id="Path"  >
<path style="stroke: none; stroke-width: 1; stroke-dasharray: none; stroke-linecap: butt; stroke-dashoffset: 0; stroke-linejoin: miter; stroke-miterlimit: 4; fill: rgb(0,121,0); fill-rule: evenodd; opacity: 1;" vector-effect="non-scaling-stroke"  transform=" translate(-47, -41)" d="M 49.89 39.2 C 49.530468 37.900576 48.3482454 37.0006141 47 37 L 44 37 C 45.655485 37.0033011 46.9966989 38.344515 47 40 L 47 45 L 50 45 L 50 40 C 49.9998886 39.7295716 49.9628806 39.4604227 49.89 39.2 z" stroke-linecap="round" />
</g>
		<g transform="matrix(8.53 0 0 8.53 0 42.66)" id="Path"  >
<path style="stroke: none; stroke-width: 1; stroke-dasharray: none; stroke-linecap: butt; stroke-dashoffset: 0; stroke-linejoin: miter; stroke-miterlimit: 4; fill: rgb(158,158,158); fill-rule: evenodd; opacity: 1;" vector-effect="non-scaling-stroke"  transform=" translate(-31, -35)" d="M 28 33 L 34 33 C 34.5522847 33 35 33.4477153 35 34 L 35 37 L 27 37 L 27 34 C 27 33.4477153 27.4477153 33 28 33 z" stroke-linecap="round" />
</g>
		<g transform="matrix(8.53 0 0 8.53 0 0)" id="Shape"  >
<path style="stroke: none; stroke-width: 1; stroke-dasharray: none; stroke-linecap: butt; stroke-dashoffset: 0; stroke-linejoin: miter; stroke-miterlimit: 4; fill: rgb(0,0,0); fill-rule: nonzero; opacity: 1;" vector-effect="non-scaling-stroke"  transform=" translate(-31, -30)" d="M 59.2 47.162 C 58.8276618 45.4726172 57.4139053 44.212451 55.693000000000005 44.036 L 60.882000000000005 28.68 C 61.087850700000004 28.0724974 61.021132 27.4056754 60.699000000000005 26.851 C 60.37254790000001 26.2876419 59.8188924 25.8925382 59.18000000000001 25.767 L 51.614000000000004 24.275 C 51.487122500000005 24.2530455 51.3993972 24.1359322 51.414 24.008 L 53.028 12.866999999999999 C 53.1343488 12.162826899999999 52.8932581 11.450733799999998 52.381 10.956 C 51.8646308 10.4488787 51.136929 10.2191955 50.423 10.338 L 40.749 11.927 C 40.648409300000004 11.9417232 40.5477411 11.900767 40.486000000000004 11.82 L 32.854000000000006 0.9610000000000003 C 32.428597200000006 0.3588509000000003 31.737259100000006 0.0008030400000003102 31.000000000000007 0.0008030400000003102 C 30.262740900000008 0.0008030400000003102 29.57140280000001 0.3588509000000003 29.146000000000008 0.9610000000000003 L 21.51700000000001 11.821 C 21.45425300000001 11.9003643 21.35424450000001 11.9406719 21.25400000000001 11.927 L 11.579000000000008 10.337 C 10.865592500000007 10.2237102 10.140493500000009 10.453059399999999 9.622000000000007 10.956 C 9.109429980000007 11.4509524 8.868312450000007 12.1634976 8.975000000000007 12.867999999999999 L 10.589000000000008 24.008 C 10.603602800000008 24.1359322 10.515877500000007 24.2530455 10.389000000000008 24.275 L 2.8200000000000083 25.767 C 2.180737720000008 25.892273 1.6266723800000082 26.287409099999998 1.3000000000000083 26.851 C 0.9779105200000082 27.4053248 0.9111873500000083 28.0718273 1.1170000000000082 28.679 L 6.312000000000008 44.036 C 4.591517450000008 44.2126225 3.177996960000008 45.4721753 2.805000000000008 47.161 L 1.090000000000008 55.161 C 0.836632700000008 56.342078 1.1305667700000082 57.5743987 1.8897511100000082 58.5139621 C 2.648935450000008 59.4535255 3.792051240000008 59.9996919 5.000000000000008 60 L 57.00000000000001 60 C 58.208124000000005 59.9999939 59.35152260000001 59.4539557 60.11093460000001 58.5143509 C 60.87034650000001 57.5747461 61.164404000000005 56.3422493 60.91100000000001 55.160999999999994 z M 3.031000000000006 27.852 C 3.068600550000006 27.7869995 3.133035790000006 27.741968 3.207000000000006 27.729 L 10.771000000000006 26.238 C 11.947216100000006 26.014828299999998 12.740031500000006 24.9062081 12.571000000000007 23.721 L 10.953000000000007 12.582 C 10.941267300000007 12.5080033 10.967136200000006 12.4330209 11.022000000000007 12.382000000000001 C 11.084262500000007 12.322409500000001 11.171007700000008 12.295718700000002 11.256000000000007 12.310000000000002 L 20.930000000000007 13.900000000000002 C 21.787556700000007 14.041778600000002 22.650780500000007 13.681422400000002 23.153000000000006 12.972000000000001 L 30.782000000000004 2.1090000000000018 C 30.819253000000003 2.0216556000000017 30.905043000000003 1.9649784900000018 31.000000000000004 1.9649784900000018 C 31.094957000000004 1.9649784900000018 31.180747000000004 2.0216556000000017 31.218000000000004 2.1090000000000018 L 38.847 12.969000000000001 C 39.348658900000004 13.6791888 40.2121836 14.040059000000001 41.07 13.898000000000001 L 50.743 12.311000000000002 C 50.828260400000005 12.294233000000002 50.916287000000004 12.320828200000001 50.978 12.382000000000001 C 51.0330178 12.432920500000002 51.0589159 12.507987400000001 51.047000000000004 12.582 L 49.43300000000001 23.722 C 49.263968500000004 24.907208100000002 50.056783900000006 26.015828300000003 51.233000000000004 26.239 L 58.797000000000004 27.73 C 58.8709642 27.742968 58.9353995 27.7879995 58.973000000000006 27.853 C 59.00634170000001 27.909244700000002 59.012937900000004 27.977405700000002 58.99100000000001 28.039 L 53.589000000000006 44 L 51.00000000000001 44 L 51.00000000000001 40 C 51.00000000000001 37.790861 49.20913900000001 36 47.00000000000001 36 L 36.00000000000001 36 L 36.00000000000001 34 C 36.00000000000001 32.8954305 35.104569500000004 32 34.00000000000001 32 L 28.000000000000007 32 C 26.895430500000007 32 26.000000000000007 32.8954305 26.000000000000007 34 L 26.000000000000007 36 L 15.000000000000007 36 C 12.790861000000007 36 11.000000000000007 37.790861 11.000000000000007 40 L 11.000000000000007 44 L 8.411000000000007 44 L 3.0110000000000063 28.037 C 2.9896916200000065 27.9754424 2.9970279600000063 27.9075813 3.0310000000000064 27.852 z M 34.00000000000001 36 L 28.000000000000007 36 L 28.000000000000007 34 L 34.00000000000001 34 z M 27.000000000000007 38 L 47.00000000000001 38 C 48.104569500000004 38 49.00000000000001 38.8954305 49.00000000000001 40 L 49.00000000000001 44 L 13.000000000000007 44 L 13.000000000000007 40 C 13.000000000000007 38.8954305 13.895430500000007 38 15.000000000000007 38 z M 58.554 57.257999999999996 C 58.1750058 57.727791399999994 57.603606 58.0006219 57 57.99999999999999 L 5 57.99999999999999 C 4.39595878 58.000115599999994 3.82422319 57.72722739999999 3.44442411 57.25752709999999 C 3.0646250299999998 56.78782669999999 2.9174533499999997 56.17163669999999 3.044 55.58099999999999 L 4.759 47.58099999999999 C 4.960026910000001 46.66079549999999 5.7731002700000005 46.00360279999999 6.715 45.999999999999986 L 55.285 45.999999999999986 C 56.226658199999996 46.003694999999986 57.0393936 46.660950599999985 57.239999999999995 47.58099999999999 L 58.955 55.58099999999999 C 59.0825782 56.17188639999999 58.935077199999995 56.78874199999999 58.553999999999995 57.25799999999999 z" stroke-linecap="round" />
</g>
		<g transform="matrix(8.53 0 0 8.53 -0.02 -51.2)" id="Path"  >
<path style="stroke: none; stroke-width: 1; stroke-dasharray: none; stroke-linecap: butt; stroke-dashoffset: 0; stroke-linejoin: miter; stroke-miterlimit: 4; fill: rgb(0,0,0); fill-rule: evenodd; opacity: 1;" vector-effect="non-scaling-stroke"  transform=" translate(-31, -24)" d="M 9.106 35.449 C 9.26676951 35.768395399999996 9.585722109999999 35.9777595 9.94271143 35.9982267 C 10.2997008 36.018693999999996 10.640491599999999 35.8471549 10.836711399999999 35.548226699999994 C 11.032931299999998 35.249298499999995 11.054769499999999 34.8683954 10.893999999999998 34.54899999999999 L 9.493999999999998 31.76599999999999 L 18.177999999999997 30.199999999999992 C 18.704190299999997 30.103160999999993 19.1696425 29.79953099999999 19.4703137 29.356980599999993 C 19.7709849 28.914430199999995 19.8818041 28.369860699999993 19.778 27.84499999999999 L 18.25 20.22699999999999 L 25.266 20.99999999999999 C 26.027519799999997 21.07942259999999 26.768535 20.72169109999999 27.18 20.07599999999999 L 31 13.99999999999999 L 34.818 20.07699999999999 C 35.230218699999995 20.72281809999999 35.9720443 21.080179799999993 36.733999999999995 20.999999999999993 L 43.751 20.21699999999999 L 42.218999999999994 27.83899999999999 C 42.113778599999996 28.36400859999999 42.2240183 28.90927689999999 42.52492649999999 29.352176299999993 C 42.825834699999994 29.795075599999993 43.29215009999999 30.098424099999992 43.818999999999996 30.193999999999992 L 52.50599999999999 31.755999999999993 L 51.105999999999995 34.54899999999999 C 50.85747189999999 35.04274259999999 51.05625739999999 35.64447189999999 51.55 35.892999999999994 C 52.0437426 36.141528099999995 52.6454719 35.942742599999995 52.894 35.44899999999999 L 54.294 32.65599999999999 C 54.5761203 32.09429259999999 54.5767167 31.43241039999999 54.295609199999994 30.870195399999993 C 54.01450169999999 30.307980399999995 53.48463809999999 29.911328199999993 52.86599999999999 29.799999999999994 L 44.17999999999999 28.234999999999992 L 45.71199999999999 20.612999999999992 C 45.84025239999999 19.989998599999993 45.66044669999999 19.343368399999992 45.22899999999999 18.87599999999999 C 44.79560269999999 18.40573269999999 44.16478469999999 18.16899039999999 43.52899999999999 18.23799999999999 L 36.511999999999986 19.01399999999999 L 32.691999999999986 12.936999999999989 C 32.32613519999999 12.35405859999999 31.686242499999985 12.000185799999988 30.997999999999987 12.000185799999988 C 30.30975749999999 12.000185799999988 29.66986479999999 12.354058599999988 29.303999999999988 12.936999999999989 L 25.48199999999999 19.01499999999999 L 18.466999999999988 18.23899999999999 C 17.831112299999987 18.16917199999999 17.199936399999988 18.40604869999999 16.76699999999999 18.876999999999992 C 16.33555329999999 19.344368399999993 16.155747599999987 19.99099859999999 16.28399999999999 20.61399999999999 L 17.81699999999999 28.228999999999992 L 9.13399999999999 29.799999999999994 C 8.51427303999999 29.909729399999993 7.9827894699999895 30.305737199999992 7.70038336999999 30.868186199999993 C 7.417977269999991 31.430635199999994 7.4178351399999904 32.09342999999999 7.69999999999999 32.65599999999999 z" stroke-linecap="round" />
</g>
</g>
</g>
<g transform="matrix(0.89 0 0 0.89 256 256)"  >
<g style="" vector-effect="non-scaling-stroke"   >
		<g transform="matrix(1 0 0 1 75 -50)"  >
<path style="stroke: none; stroke-width: 1; stroke-dasharray: none; stroke-linecap: butt; stroke-dashoffset: 0; stroke-linejoin: miter; stroke-miterlimit: 4; fill: rgb(252,73,92); fill-rule: nonzero; opacity: 1;" vector-effect="non-scaling-stroke"  transform=" translate(-331, -206)" d="M 427.155 206 L 464.92699999999996 111.571 C 466.77599999999995 106.949 466.21099999999996 101.712 463.421 97.591 C 460.63 93.469 455.977 91 451 91 L 261 91 C 252.716 91 246 97.716 246 106 L 246 241 L 211 241 C 202.716 241 196 247.716 196 256 L 196 306 C 196 314.284 202.716 321 211 321 L 451 321 C 455.978 321 460.63 318.531 463.421 314.409 C 466.212 310.288 466.776 305.051 464.92699999999996 300.429 L 427.155 206 z" stroke-linecap="round" />
</g>
		<g transform="matrix(1 0 0 1 -20 25)"  >
<path style="stroke: none; stroke-width: 1; stroke-dasharray: none; stroke-linecap: butt; stroke-dashoffset: 0; stroke-linejoin: miter; stroke-miterlimit: 4; fill: rgb(209,38,87); fill-rule: nonzero; opacity: 1;" vector-effect="non-scaling-stroke"  transform=" translate(-236, -281)" d="M 210.997 321 C 209.06500000000003 321 207.116 320.627 205.26000000000002 319.858 C 199.65500000000003 317.536 196.00000000000003 312.067 196.00000000000003 306 L 196.00000000000003 256 C 196.00000000000003 247.716 202.71600000000004 241 211.00000000000003 241 L 261 241 C 267.067 241 272.537 244.654 274.858 250.26 C 277.17900000000003 255.86499999999998 275.896 262.317 271.606 266.60699999999997 L 221.606 316.60699999999997 C 218.737 319.477 214.9 321 210.997 321 z" stroke-linecap="round" />
</g>
		<g transform="matrix(1 0 0 1 -95 -100)"  >
<path style="stroke: none; stroke-width: 1; stroke-dasharray: none; stroke-linecap: butt; stroke-dashoffset: 0; stroke-linejoin: miter; stroke-miterlimit: 4; fill: rgb(253,107,130); fill-rule: nonzero; opacity: 1;" vector-effect="non-scaling-stroke"  transform=" translate(-161, -156)" d="M 261 41 L 61 41 C 52.716 41 46 47.716 46 56 L 46 256 C 46 264.284 52.716 271 61 271 L 261 271 C 269.284 271 276 264.284 276 256 L 276 56 C 276 47.716 269.284 41 261 41 z" stroke-linecap="round" />
</g>
		<g transform="matrix(1 0 0 1 -195 0)"  >
<path style="stroke: none; stroke-width: 1; stroke-dasharray: none; stroke-linecap: butt; stroke-dashoffset: 0; stroke-linejoin: miter; stroke-miterlimit: 4; fill: rgb(164,176,190); fill-rule: nonzero; opacity: 1;" vector-effect="non-scaling-stroke"  transform=" translate(-61, -256)" d="M 61 512 C 52.716 512 46 505.284 46 497 L 46 15 C 46 6.715999999999999 52.716 0 61 0 C 69.28399999999999 0 76 6.716 76 15 L 76 497 C 76 505.284 69.284 512 61 512 z" stroke-linecap="round" />
</g>
</g>
</g>
</svg>