<svg id="Capa_1" enable-background="new 0 0 609.989 609.989" height="512" viewBox="0 0 609.989 609.989" width="512" xmlns="http://www.w3.org/2000/svg"><g><g id="Page-1_95_"><g id="_x30_96---Land-Mine" transform="translate(0 -1)"><path id="Path_736_" clip-rule="evenodd" d="m130.807 393.268c-12.024 0-21.772 9.748-21.772 21.772v43.544h391.898v-43.544c0-12.024-9.748-21.772-21.772-21.772z" fill-rule="evenodd"/><path id="Shape_112_" d="m550.888 458.584 58.785-173.763c.239-.671.167-1.413-.196-2.025-.409-.708-1.111-1.198-1.916-1.339l-82.342-16.231c-12.804-2.429-21.435-14.498-19.595-27.4l17.57-121.271c.13-.806-.152-1.623-.751-2.177-.672-.666-1.63-.955-2.558-.773l-105.279 17.309c-9.338 1.546-18.739-2.382-24.2-10.113l-83.049-118.233c-.406-.951-1.34-1.568-2.373-1.568-1.034 0-1.968.617-2.373 1.568l-83.05 118.233c-5.467 7.723-14.864 11.646-24.2 10.102l-105.312-17.287c-.925-.155-1.87.135-2.547.784-.597.555-.879 1.372-.751 2.177l17.57 121.26c1.84 12.902-6.791 24.971-19.595 27.4l-82.299 16.22c-.805.141-1.507.631-1.916 1.339-.363.608-.434 1.347-.196 2.014l58.763 173.774h28.184v-43.544c0-24.049 19.495-43.544 43.544-43.544h119.747v-21.772c0-12.024 9.748-21.772 21.772-21.772h65.316c12.024 0 21.772 9.748 21.772 21.772v21.772h119.747c24.049 0 43.544 19.495 43.544 43.544v43.544zm-106.313-150.227c-5.735-1.04-10.812-4.343-14.087-9.164-3.276-4.821-4.476-10.757-3.33-16.473l16.677-82.973-76.431 8.458c-8.295.864-16.367-3.035-20.847-10.07l-41.574-66.133-41.585 66.165c-4.485 7.021-12.55 10.906-20.836 10.037l-76.377-8.437 16.667 82.886c1.13 5.714-.076 11.642-3.349 16.46s-8.34 8.123-14.068 9.177l-94.622 17.135 15.24 30.296c2.705 5.375.542 11.925-4.833 14.631s-11.925.542-14.631-4.833l-15.251-30.427c-3.072-6.124-3.07-13.339.004-19.462s8.86-10.434 15.606-11.628l94.567-17.102-16.688-82.897c-1.396-6.782.561-13.821 5.258-18.909 4.713-5.127 11.584-7.705 18.506-6.945l76.366 8.448 41.606-66.165c3.983-6.346 10.949-10.198 18.441-10.198s14.458 3.852 18.441 10.198l41.585 66.155 76.387-8.448c6.921-.751 13.788 1.826 18.506 6.945 4.697 5.088 6.654 12.127 5.258 18.909l-16.721 82.973 94.556 17.037c6.746 1.195 12.532 5.505 15.606 11.628s3.076 13.338.004 19.462l-15.24 30.405c-2.706 5.375-9.256 7.539-14.631 4.833s-7.539-9.256-4.833-14.631l15.24-30.405z"/><g clip-rule="evenodd" fill-rule="evenodd"><path id="Rectangle_98_" d="m272.325 349.724h65.316v21.772h-65.316z"/><path id="Path_735_" d="m590.633 497.567c-2.184-10.016-11.031-17.171-21.282-17.211h-528.735c-10.246.043-19.09 7.191-21.282 17.2l-18.67 87.088c-1.381 6.429.218 13.139 4.351 18.254s10.356 8.089 16.932 8.09h566.075c6.578.002 12.804-2.97 16.939-8.086s5.735-11.827 4.354-18.258z"/></g></g></g></g></svg>