<?xml version="1.0" encoding="iso-8859-1"?>
<!-- Generator: Adobe Illustrator 19.0.0, SVG Export Plug-In . SVG Version: 6.00 Build 0)  -->
<svg version="1.1" id="Capa_1" xmlns="http://www.w3.org/2000/svg" xmlns:xlink="http://www.w3.org/1999/xlink" x="0px" y="0px"
	 viewBox="0 0 509.696 509.696" style="enable-background:new 0 0 509.696 509.696;" xml:space="preserve">
<g>
	<g>
		<path d="M496.597,242.347l-28.843-7.595c-3.477-0.927-7.108-1.131-10.667-0.597c-3.667-28.623-13.571-56.092-29.013-80.469
			l24.661-41.813c5.717-9.643,3.413-15.275,0.512-18.261c-2.901-2.987-8.533-5.376-18.261,0l-38.229,21.76
			c-32.88-31.507-75.417-51.017-120.747-55.381l-12.544-46.848C260.395,2.304,254.933,0,250.581,0
			c-4.181,0-9.728,2.304-12.715,13.141l-12.971,47.957c-42.883,6.167-82.676,25.869-113.579,56.235L70.016,93.781
			c-9.728-5.547-15.275-3.157-18.261,0c-2.987,3.157-5.205,8.533,0.512,18.261l27.051,45.568
			c-14.144,23.444-23.16,49.619-26.453,76.8c-3.565-0.505-7.195-0.273-10.667,0.683l-28.843,7.595
			c-11.008,2.475-13.227,8.021-13.227,12.203c0,4.181,2.304,9.728,13.141,12.629l28.331,7.339c3.256,0.878,6.611,1.337,9.984,1.365
			h0.597c2.467,28.187,10.964,55.513,24.917,80.128l-24.832,41.643c-5.717,9.728-3.413,15.275-0.512,18.261
			c2.011,2.072,4.793,3.216,7.68,3.157c3.755-0.177,7.401-1.323,10.581-3.328l35.925-20.48
			c32.044,34.121,74.928,56.075,121.344,62.123l10.581,38.912c2.901,10.837,8.533,13.056,12.715,13.056s9.728-2.304,12.715-13.056
			l10.325-38.059c48.86-4.152,94.554-25.892,128.597-61.184L434.901,416c3.18,2.005,6.826,3.151,10.581,3.328
			c2.887,0.058,5.669-1.085,7.68-3.157c2.901-2.987,5.205-8.533-0.512-18.261l-22.016-37.461
			c15.393-25.686,24.705-54.555,27.221-84.395h0.597c3.308,0.013,6.605-0.388,9.813-1.195l28.16-7.424
			c10.923-2.816,13.141-8.533,13.141-12.544C509.568,250.88,507.52,245.163,496.597,242.347z M150.213,350.219
			c-0.491,0.772-1.242,1.343-2.117,1.611l0.341-0.256l-45.312,25.6l-28.501,16.64l42.667-72.363
			c0.663-1.382,1.919-2.388,3.413-2.731c1.381,0.113,2.665,0.755,3.584,1.792l24.747,24.405
			C150.824,346.056,151.352,348.429,150.213,350.219z M151.413,162.918c-0.268,0.875-0.839,1.626-1.611,2.117l-0.512-0.085
			l-24.747,24.405c-1.34,1.939-3.997,2.424-5.936,1.085c-0.72-0.497-1.269-1.203-1.574-2.023v-0.683l-42.496-71.765l34.133,19.285
			l40.192,22.869C150.892,158.743,152.034,160.89,151.413,162.918z M228.395,112.64l22.016-81.152l10.411,38.4l9.557,35.328
			l1.963,7.339c0.982,1.985,0.169,4.391-1.816,5.373c-0.785,0.389-1.676,0.509-2.536,0.344h-35.072
			c-2.175,0.418-4.278-1.006-4.696-3.181c-0.165-0.86-0.045-1.751,0.344-2.536L228.395,112.64z M272.427,397.056l-22.016,81.152
			l-8.533-30.379l-13.739-50.688c-0.982-1.985-0.169-4.391,1.816-5.373c0.785-0.389,1.676-0.509,2.536-0.344h35.328
			c2.175-0.418,4.278,1.006,4.696,3.181c0.165,0.86,0.045,1.751-0.344,2.536L272.427,397.056z M251.186,280.498
			c-0.201,0-0.403-0.002-0.604-0.007c-14.135-0.33-25.326-12.056-24.996-26.19c0.33-14.135,12.056-25.326,26.19-24.996
			c13.899,0.324,24.999,11.683,25.003,25.586C276.783,269.029,265.324,280.494,251.186,280.498z M354.278,159.563
			c0.491-0.772,1.242-1.343,2.117-1.611v0.171l7.595-4.352l66.389-37.803l-19.627,33.365l-22.955,38.997
			c-0.821,2.209-3.277,3.333-5.486,2.512c-0.82-0.305-1.526-0.854-2.023-1.574l-24.832-24.405
			C353.667,163.726,353.139,161.352,354.278,159.563z M405.035,379.307l-48.64-27.648c-2.028-0.62-3.17-2.767-2.549-4.795
			c0.268-0.875,0.839-1.626,1.611-2.117l13.397-13.056l11.52-11.264c0.919-1.037,2.203-1.679,3.584-1.792
			c1.494,0.343,2.751,1.348,3.413,2.731l3.243,5.547l39.339,66.901L405.035,379.307z"/>
	</g>
</g>
<g>
</g>
<g>
</g>
<g>
</g>
<g>
</g>
<g>
</g>
<g>
</g>
<g>
</g>
<g>
</g>
<g>
</g>
<g>
</g>
<g>
</g>
<g>
</g>
<g>
</g>
<g>
</g>
<g>
</g>
</svg>
