<svg height="512" viewBox="0 0 58 58" width="512" xmlns="http://www.w3.org/2000/svg"><g id="Page-1" fill="none" fill-rule="evenodd"><g id="096---Land-Mine"><path id="Path" d="m52.306 44 5.629-16.642c.112643-.3397996.073063-.7116896-.1085758-1.020169-.1816388-.3084795-.4876405-.523495-.8394242-.589831l-7.565-1.491c-.6515287-.123276-1.0915787-.7362657-1-1.393l1.614-11.139c.053384-.3951523-.0848031-.7920828-.3720396-1.0686517-.2872366-.2765688-.6891104-.3996419-1.0819604-.3313483l-9.674 1.589c-.4793911.0800354-.9623157-.1212156-1.243-.518l-7.629-10.861c-.2384053-.33544234-.6244679-.53469504-1.036-.53469504s-.7975947.1992527-1.036.53469504l-7.629 10.865c-.2806843.3967844-.7636089.5980354-1.243.518l-9.674-1.589c-.39285001-.0682936-.79472383.0547795-1.08196035.3313483-.28723652.2765689-.42542365.6734994-.37203965 1.0686517l1.615 11.139c.09104808.6566032-.34876522 1.2692632-1 1.393l-7.566 1.487c-.3517837.066336-.65778539.2813515-.83942422.589831-.18163883.3084794-.22121878.6803694-.10857578 1.020169l5.629 16.642" fill="#f29c1f"/><path id="Path" d="m45.917 42.124 5.483-10.917c.1379067-.2809452.1363297-.6102514-.0042615-.8898629-.1405911-.2796115-.4039799-.4772764-.7117385-.5341371l-8.684-1.571c-.2623609-.048467-.4944759-.1997657-.644716-.420243-.15024-.2204772-.2061464-.4918499-.155284-.753757l1.532-7.622c.0603593-.311925-.0310969-.6339721-.2463892-.8676165-.2152922-.2336444-.5287999-.3510815-.8446108-.3163835l-7.016.776c-.3815432.0426665-.7538285-.1368698-.958-.462l-3.819-6.078c-.1823393-.2942169-.5038624-.4732173-.85-.4732173s-.6676607.1790004-.85.4732173l-3.819 6.078c-.2041715.3251302-.5764568.5046665-.958.462l-7.016-.776c-.3158109-.034698-.6293186.0827391-.8446108.3163835-.2152923.2336444-.3067485.5556915-.2463892.8676165l1.536 7.622c.0508624.2619071-.005044.5332798-.155284.753757-.1502401.2204773-.3823551.371776-.644716.420243l-8.688 1.571c-.30703215.0579107-.5693507.2559996-.70908072.5354596-.13973002.2794601-.14080999.6081682-.00291928.8885404l5.82 11.58" fill="#f3d55b"/><path id="Path" d="m13 36h32c1.6568542 0 3 1.3431458 3 3v5.5h-38v-5.5c0-1.6568542 1.3431458-3 3-3z" fill="#bdc3c7"/><path id="Path" d="m26 32h6c.5522847 0 1 .4477153 1 1v3h-8v-3c0-.5522847.4477153-1 1-1z" fill="#95a5a5"/><path id="Path" d="m53.285 44h-48.57c-1.41433551.0001503-2.636461.988101-2.933 2.371l-1.714 8c-.18992031.8856861.03050909 1.8097653.59977324 2.5143558.56926416.7045906 1.42640701 1.114246 2.33222676 1.1146442h52c.905995-.0000963 1.7634207-.4096235 2.3329124-1.1142554.5694917-.704632.7900446-1.6288872.6000876-2.5147446l-1.714-8c-.2966176-1.3832657-1.5192895-2.3713212-2.934-2.371z" fill="#4c8056"/></g></g></svg>