<svg id="Capa_1" enable-background="new 0 0 609.644 609.644" height="512" viewBox="0 0 609.644 609.644" width="512" xmlns="http://www.w3.org/2000/svg"><g><g id="Page-1_95_"><g id="_x30_96---Land-Mine" transform="translate(-1)"><path id="Shape_215_" d="m592.355 479.195c-3.783-17.165-18.148-29.969-35.633-31.762l52.724-156.027c2.092-6.173 1.414-12.948-1.859-18.584-3.317-5.724-8.943-9.739-15.434-11.014l-76.875-15.16c-1.289-.223-2.18-1.413-2.032-2.713l16.399-113.2c1.081-7.155-1.369-14.39-6.574-19.417-5.247-5.153-12.641-7.486-19.895-6.279l-98.294 16.145c-1.022.15-2.045-.267-2.672-1.087l-77.547-110.334c-4.322-6.118-11.347-9.756-18.838-9.756s-14.515 3.638-18.838 9.756l-77.516 110.345c-.638.806-1.654 1.216-2.672 1.077l-98.304-16.155c-7.249-1.151-14.616 1.179-19.884 6.289-5.208 5.029-7.658 12.269-6.574 19.427l16.399 113.19c.148 1.3-.743 2.49-2.032 2.713l-76.906 15.16c-6.495 1.273-12.125 5.288-15.444 11.014-3.273 5.632-3.951 12.404-1.859 18.574l52.785 156.037c-17.481 1.795-31.844 14.592-35.633 31.752l-17.427 81.284c-2.574 12.001.412 24.522 8.126 34.068s19.329 15.096 31.602 15.099h528.354c12.275 0 23.893-5.548 31.609-15.095s10.704-22.07 8.129-34.072zm-570.714-196.202c.382-.66 1.037-1.118 1.788-1.25l76.855-15.15c11.951-2.268 20.007-13.532 18.289-25.574l-16.44-113.179c-.119-.752.144-1.514.701-2.032.633-.605 1.514-.877 2.378-.732l98.294 16.155c8.713 1.441 17.484-2.221 22.587-9.429l77.517-110.375c.379-.887 1.25-1.463 2.215-1.463s1.837.576 2.215 1.463l77.516 110.345c5.097 7.216 13.871 10.883 22.587 9.439l98.284-16.125c.866-.17 1.761.1 2.388.721.559.517.822 1.28.701 2.032l-16.399 113.19c-1.717 12.042 6.338 23.307 18.289 25.574l76.855 15.15c.752.132 1.406.589 1.788 1.25.339.571.406 1.264.183 1.89l-54.888 162.174h-26.306v-40.643c0-22.446-18.196-40.643-40.643-40.643h-111.767v-20.321c0-11.223-9.098-20.321-20.321-20.321h-60.964c-11.223 0-20.321 9.098-20.321 20.321v20.321h-111.768c-22.446 0-40.643 18.196-40.643 40.643v40.643h-26.305l-54.868-162.194c-.216-.626-.142-1.315.203-1.88zm314.666 82.789h-60.964v-20.321h60.964zm-71.125 20.321h203.213c11.223 0 20.321 9.098 20.321 20.321v40.643h-365.783v-40.643c0-11.223 9.098-20.321 20.321-20.321zm320.609 195.674c-3.851 4.773-9.657 7.546-15.79 7.539h-528.353c-6.137.001-11.947-2.772-15.806-7.544s-5.354-11.033-4.069-17.035l17.426-81.285c2.043-9.35 10.304-16.027 19.874-16.064h493.503c9.568.038 17.826 6.716 19.864 16.064l17.425 81.285c1.297 6.005-.202 12.272-4.074 17.04z"/><path id="Path_89_" clip-rule="evenodd" d="m83.367 360.184c1.634 3.245 4.874 5.373 8.502 5.58 3.627.208 7.09-1.535 9.084-4.572s2.216-6.908.582-10.153l-14.225-28.277 88.235-15.912c5.346-.984 10.076-4.069 13.131-8.566s4.181-10.03 3.126-15.363l-15.525-77.404 71.287 7.854c7.738.807 15.267-2.828 19.447-9.388l38.814-61.736 38.793 61.746c4.188 6.562 11.726 10.193 19.468 9.378l71.297-7.956-15.566 77.444c-1.069 5.334.051 10.875 3.108 15.375s7.796 7.582 13.149 8.553l88.266 15.871-14.225 28.379c-2.525 5.017-.505 11.131 4.511 13.656 5.017 2.525 11.131.505 13.656-4.511l14.225-28.379c2.867-5.707 2.873-12.432.016-18.145-2.856-5.712-8.24-9.743-14.526-10.874l-88.255-15.901 15.566-77.444c1.303-6.33-.524-12.9-4.908-17.649-4.404-4.778-10.813-7.184-17.273-6.482l-71.297 7.885-38.814-61.746c-3.717-5.923-10.219-9.519-17.212-9.519s-13.495 3.596-17.212 9.519l-38.834 61.756-71.277-7.885c-6.461-.71-12.874 1.697-17.273 6.482-4.384 4.749-6.211 11.319-4.908 17.649l15.576 77.373-88.225 15.962c-6.297 1.115-11.697 5.139-14.566 10.853s-2.871 12.449-.004 18.165z" fill-rule="evenodd"/></g></g></g></svg>