<svg height="512" viewBox="0 0 60 60" width="512" xmlns="http://www.w3.org/2000/svg"><g id="Page-1" fill="none" fill-rule="evenodd"><g id="096---Land-Mine" transform="translate(-1)"><path id="Path" d="m55.285 45h-48.57c-1.41433551.0001503-2.636461.988101-2.933 2.371l-1.714 8c-.18992031.8856861.03050909 1.8097653.59977324 2.5143558.56926416.7045906 1.42640701 1.114246 2.33222676 1.1146442h52c.905995-.0000963 1.7634207-.4096235 2.3329124-1.1142554.5694917-.704632.7900446-1.6288872.6000876-2.5147446l-1.714-8c-.2966176-1.3832657-1.5192895-2.3713212-2.934-2.371z" fill="#60a917"/><path id="Path" d="m59.932 55.371-1.714-8c-.296539-1.382899-1.5186645-2.3708497-2.933-2.371h-3c1.4143355.0001503 2.636461.988101 2.933 2.371l1.714 8c.1899203.8856861-.0305091 1.8097653-.5997732 2.5143558-.5692642.7045906-1.426407 1.114246-2.3322268 1.1146442h3c.9058198-.0003982 1.7629626-.4100536 2.3322268-1.1146442.5692641-.7045905.7896935-1.6286697.5997732-2.5143558z" fill="#549414"/><path id="Path" d="m54.306 45 5.629-16.642c.112643-.3397996.073063-.7116896-.1085758-1.020169-.1816388-.3084795-.4876405-.523495-.8394242-.589831l-7.565-1.491c-.6515287-.123276-1.0915787-.7362657-1-1.393l1.614-11.139c.053384-.3951523-.0848031-.7920828-.3720396-1.0686517-.2872366-.2765688-.6891104-.3996419-1.0819604-.3313483l-9.674 1.589c-.4793911.0800354-.9623157-.1212156-1.243-.518l-7.629-10.861c-.2384053-.33544234-.6244679-.53469504-1.036-.53469504s-.7975947.1992527-1.036.53469504l-7.629 10.865c-.2806843.3967844-.7636089.5980354-1.243.518l-9.674-1.589c-.39285-.0682936-.7947238.0547795-1.0819604.3313483-.2872365.2765689-.4254236.6734994-.3720396 1.0686517l1.615 11.139c.0910481.6566032-.3487652 1.2692632-1 1.393l-7.566 1.487c-.3517837.066336-.65778539.2813515-.83942422.589831-.18163883.3084794-.22121878.6803694-.10857578 1.020169l5.629 16.642" fill="#ffdc00"/><path id="Path" d="m53.4 32.21-3.51 6.99c-.359532-1.299424-1.5417546-2.1993859-2.89-2.2h-32c-1.3482454.0006141-2.530468.900576-2.89 2.2l-3.51-6.99c-.14029623-.2806353-.14074862-.6108467-.00122186-.8918654.13952675-.2810187.40285525-.480262.71122186-.5381346l8.69-1.57c.2624392-.0467597.4950572-.1970737.6455188-.4171239.1504617-.2200502.2061302-.4913552.1544812-.7528761l-1.53-7.62c-.0624902-.3126407.027844-.6363408.2431922-.8714458.2153483-.235105.5298966-.3534325.8468078-.3185542l7.01.78c.3818073.0438798.7549801-.1349321.96-.46l3.82-6.08c.1823393-.2942169.5038624-.4732173.85-.4732173s.6676607.1790004.85.4732173l3.82 6.08c.2050199.3250679.5781927.5038798.96.46l7.01-.78c.3169112-.0348783.6314595.0834492.8468078.3185542.2153482.235105.3056824.5588051.2431922.8714458l-1.53 7.62c-.051649.2615209.0040195.5328259.1544812.7528761.1504616.2200502.3830796.3703642.6455188.4171239l8.69 1.57c.3083666.0578726.5716951.2571159.7112219.5381346.1395267.2810187.1390743.6112301-.0012219.8918654z" fill="#ff9801"/><path id="Path" d="m50 40v5h-38v-5c.000795-.2670945.0377987-.5328482.11-.79v-.01c.359532-1.299424 1.5417546-2.1993859 2.89-2.2h32c1.655485.0033011 2.9966989 1.344515 3 3z" fill="#008a00"/><path id="Path" d="m49.89 39.2c-.359532-1.299424-1.5417546-2.1993859-2.89-2.2h-3c1.655485.0033011 2.9966989 1.344515 3 3v5h3v-5c-.0001114-.2704284-.0371194-.5395773-.11-.8z" fill="#007900"/><path id="Path" d="m28 33h6c.5522847 0 1 .4477153 1 1v3h-8v-3c0-.5522847.4477153-1 1-1z" fill="#9e9e9e"/><g fill="#000"><path id="Shape" d="m59.2 47.162c-.3723382-1.6893828-1.7860947-2.949549-3.507-3.126l5.189-15.356c.2058507-.6075026.139132-1.2743246-.183-1.829-.3264521-.5633581-.8801076-.9584618-1.519-1.084l-7.566-1.492c-.1268775-.0219545-.2146028-.1390678-.2-.267l1.614-11.141c.1063488-.7041731-.1347419-1.4162662-.647-1.911-.5163692-.5071213-1.244071-.7368045-1.958-.618l-9.674 1.589c-.1005907.0147232-.2012589-.026233-.263-.107l-7.632-10.859c-.4254028-.6021491-1.1167409-.96019696-1.854-.96019696s-1.4285972.35804786-1.854.96019696l-7.629 10.86c-.062747.0793643-.1627555.1196719-.263.106l-9.675-1.59c-.7134075-.1132898-1.4385065.1160594-1.957.619-.51257002.4949524-.75368755 1.2074976-.647 1.912l1.614 11.14c.0146028.1279322-.0731225.2450455-.2.267l-7.569 1.492c-.63926228.125273-1.19332762.5204091-1.52 1.084-.32208948.5543248-.38881265 1.2208273-.183 1.828l5.195 15.357c-1.72048255.1766225-3.13400304 1.4361753-3.507 3.125l-1.715 8c-.2533673 1.181078.04056677 2.4133987.79975111 3.3529621s1.90230013 1.4857298 3.11024889 1.4860379h52c1.208124-.0000061 2.3515226-.5460443 3.1109346-1.4856491.7594119-.9396048 1.0534694-2.1721016.8000654-3.3533509zm-56.169-19.31c.03760055-.0650005.10203579-.110032.176-.123l7.564-1.491c1.1762161-.2231717 1.9690315-1.3317919 1.8-2.517l-1.618-11.139c-.0117327-.0739967.0141362-.1489791.069-.2.0622625-.0595905.1490077-.0862813.234-.072l9.674 1.59c.8575567.1417786 1.7207805-.2185776 2.223-.928l7.629-10.863c.037253-.0873444.123043-.14402151.218-.14402151s.180747.05667711.218.14402151l7.629 10.86c.5016589.7101888 1.3651836 1.071059 2.223.929l9.673-1.587c.0852604-.016767.173287.0098282.235.071.0550178.0509205.0809159.1259874.069.2l-1.614 11.14c-.1690315 1.1852081.6237839 2.2938283 1.8 2.517l7.564 1.491c.0739642.012968.1383995.0579995.176.123.0333417.0562447.0399379.1244057.018.186l-5.402 15.961h-2.589v-4c0-2.209139-1.790861-4-4-4h-11v-2c0-1.1045695-.8954305-2-2-2h-6c-1.1045695 0-2 .8954305-2 2v2h-11c-2.209139 0-4 1.790861-4 4v4h-2.589l-5.4-15.963c-.02130838-.0615576-.01397204-.1294187.02-.185zm30.969 8.148h-6v-2h6zm-7 2h20c1.1045695 0 2 .8954305 2 2v4h-36v-4c0-1.1045695.8954305-2 2-2zm31.554 19.258c-.3789942.4697914-.950394.7426219-1.554.742h-52c-.60404122.0001156-1.17577681-.2727726-1.55557589-.7424729-.37979908-.4697004-.52697076-1.0858904-.40042411-1.6765271l1.715-8c.20102691-.9202045 1.01410027-1.5773972 1.956-1.581h48.57c.9416582.003695 1.7543936.6609506 1.955 1.581l1.715 8c.1275782.5908864-.0199228 1.207742-.401 1.677z" fill-rule="nonzero"/><path id="Path" d="m9.106 35.449c.16076951.3193954.47972211.5287595.83671143.5492267.35698937.0204673.69778017-.1510718.89399997-.45.1962199-.2989282.2180581-.6798313.0572886-.9992267l-1.4-2.783 8.684-1.566c.5261903-.096839.9916425-.400469 1.2923137-.8430194s.4114904-.9871199.3076863-1.5119806l-1.528-7.618 7.016.773c.7615198.0794226 1.502535-.2783089 1.914-.924l3.82-6.076 3.818 6.077c.4122187.6458181 1.1540443 1.0031798 1.916.923l7.017-.783-1.532 7.622c-.1052214.5250086.0050183 1.0702769.3059265 1.5131763.3009082.4428993.7672236.7462478 1.2940735.8418237l8.687 1.562-1.4 2.793c-.2485281.4937426-.0497426 1.0954719.444 1.344s1.0954719.0497426 1.344-.444l1.4-2.793c.2821203-.5617074.2827167-1.2235896.0016092-1.7858046s-.8109711-.9588672-1.4296092-1.0701954l-8.686-1.565 1.532-7.622c.1282524-.6230014-.0515533-1.2696316-.483-1.737-.4333973-.4702673-1.0642153-.7070096-1.7-.638l-7.017.776-3.82-6.077c-.3658648-.5829414-1.0057575-.9368142-1.694-.9368142s-1.3281352.3538728-1.694.9368142l-3.822 6.078-7.015-.776c-.6358877-.069828-1.2670636.1670487-1.7.638-.4314467.4673684-.6112524 1.1139986-.483 1.737l1.533 7.615-8.683 1.571c-.61972696.1097294-1.15121053.5057372-1.43361663 1.0681862s-.28254823 1.2252438-.00038337 1.7878138z"/></g></g></g></svg>